<?xml version="1.0" encoding="utf-8"?>
<!-- Generator: Adobe Illustrator 17.1.0, SVG Export Plug-In . SVG Version: 6.00 Build 0)  -->
<!DOCTYPE svg PUBLIC "-//W3C//DTD SVG 1.1//EN" "http://www.w3.org/Graphics/SVG/1.1/DTD/svg11.dtd">
<svg version="1.1" id="Capa_1" xmlns="http://www.w3.org/2000/svg" xmlns:xlink="http://www.w3.org/1999/xlink" x="0px" y="0px"
	 viewBox="0 0 1000 1000" enable-background="new 0 0 1000 1000" xml:space="preserve">
<g>
	<g>
		<path fill="#FFFFFF" d="M498,175.8c-177.7,0-322.3,144.6-322.3,322.3c0,178.4,144.3,326.2,322.3,326.2c72,0,144.9-24.2,199.9-66.4
			c12.8-9.8,15.3-28.2,5.4-41.1s-28.2-15.3-41.1-5.4C617.3,745.8,557.4,766,498,766c-145.4,0-263.7-120.4-263.7-268
			C234.4,352.7,352.7,234,498,234c147.5,0,267.6,118.7,267.6,264.1v29.3c0,32.3-26.3,58.6-58.6,58.6s-58.6-26.3-58.6-58.6
			c0-14.5,0-131.2,0-146.5c0-16.2-13.1-29.3-29.3-29.3s-29.3,13.1-29.3,29.3v1.9c-26.5-20.2-58.5-31.2-91.8-31.2
			c-80.8,0-146.5,65.7-146.5,146.5S417.3,644.5,498,644.5c43.8,0,84.1-18.8,112.8-50.4c21.2,30.4,56.4,50.4,96.2,50.4
			c64.6,0,117.2-52.6,117.2-117.2V498C824.2,319.8,676.2,175.8,498,175.8z M498,586.3c-48.5,0-87.9-39.8-87.9-88.3
			s39.4-88.3,87.9-88.3c49.8,0,91.8,40.6,91.8,88.3S547.8,586.3,498,586.3z"/>
	</g>
</g>
</svg>
