<?xml version="1.0" encoding="utf-8"?>
<!-- Generator: Adobe Illustrator 17.1.0, SVG Export Plug-In . SVG Version: 6.00 Build 0)  -->
<!DOCTYPE svg PUBLIC "-//W3C//DTD SVG 1.1//EN" "http://www.w3.org/Graphics/SVG/1.1/DTD/svg11.dtd">
<svg version="1.1" id="Layer_1" xmlns="http://www.w3.org/2000/svg" xmlns:xlink="http://www.w3.org/1999/xlink" x="0px" y="0px"
	 viewBox="0 0 612 792" enable-background="new 0 0 612 792" xml:space="preserve">
<title></title>
<g id="outline">
	<path fill="#1976D2" d="M545.1,329.9v-48.7c0-37-30-66.9-66.9-66.9H344.3c-15.1,0-29.3,7.2-38.3,19.4
		c-8.9-12.2-23.1-19.4-38.3-19.4H133.9c-37,0-66.9,30-66.9,66.9v48.7c-31.2,5.2-52.2,34.7-47,65.9c2.1,12.9,8.6,24.6,18.3,33.3
		v100.8c0,5.3,4.3,9.6,9.6,9.6h19.1v28.7c0,5.3,4.3,9.6,9.6,9.6h38.3c5.3,0,9.6-4.3,9.6-9.6v-28.7h363.4v28.7c0,5.3,4.3,9.6,9.6,9.6
		h38.3c5.3,0,9.6-4.3,9.6-9.6v-28.7h19.1c5.3,0,9.6-4.3,9.6-9.6V429.1c23.6-21.1,25.6-57.2,4.6-80.8
		C569.7,338.5,557.9,332.1,545.1,329.9z M315.6,262.1c0-15.8,12.8-28.7,28.7-28.7h133.9c26.4,0,47.8,21.4,47.8,47.8v48.7
		c-27.6,4.7-47.8,28.5-47.8,56.5h-153c-3.3,0-6.5,0.6-9.6,1.8V262.1z M315.6,415.1c0-5.3,4.3-9.6,9.6-9.6h156.3
		c5.8,16.3,18.6,29.1,34.9,34.9v22.5H315.6V415.1z M86.1,281.3c0-26.4,21.4-47.8,47.8-47.8h133.9c15.8,0,28.7,12.8,28.7,28.7v126.1
		c-3.1-1.1-6.3-1.7-9.6-1.8h-153c-0.1-28-20.2-51.8-47.8-56.5V281.3z M296.4,415.1v47.8H95.6v-22.5c16.3-5.8,29.1-18.6,34.9-34.9
		h156.3C292.2,405.6,296.4,409.8,296.4,415.1z M38.3,386.4c0-21.1,17.1-38.3,38.3-38.3s38.3,17.1,38.3,38.3
		c0,21.1-17.1,38.3-38.3,38.3S38.3,407.6,38.3,386.4z M105.2,558.6H86.1v-19.1h19.1V558.6z M525.9,558.6h-19.1v-19.1h19.1V558.6z
		 M554.6,520.3H57.4v-79.8c6.1,2.2,12.6,3.3,19.1,3.3v28.7c0,5.3,4.3,9.6,9.6,9.6h439.9c5.3,0,9.6-4.3,9.6-9.6v-28.7
		c6.5,0,13-1.1,19.1-3.3V520.3z M535.5,424.7c-21.1,0-38.3-17.1-38.3-38.3c0-21.1,17.1-38.3,38.3-38.3s38.3,17.1,38.3,38.3
		C573.8,407.6,556.6,424.7,535.5,424.7z"/>
	<path fill="#1976D2" d="M191.3,338.6c15.8,0,28.7-12.8,28.7-28.7s-12.8-28.7-28.7-28.7s-28.7,12.8-28.7,28.7
		S175.4,338.6,191.3,338.6z M191.3,300.4c5.3,0,9.6,4.3,9.6,9.6s-4.3,9.6-9.6,9.6s-9.6-4.3-9.6-9.6S186,300.4,191.3,300.4z"/>
	<path fill="#1976D2" d="M420.8,338.6c15.8,0,28.7-12.8,28.7-28.7s-12.8-28.7-28.7-28.7s-28.7,12.8-28.7,28.7
		S404.9,338.6,420.8,338.6z M420.8,300.4c5.3,0,9.6,4.3,9.6,9.6s-4.3,9.6-9.6,9.6s-9.6-4.3-9.6-9.6S415.5,300.4,420.8,300.4z"/>
</g>
</svg>
