<?xml version="1.0" encoding="utf-8"?>
<!-- Generator: Adobe Illustrator 17.1.0, SVG Export Plug-In . SVG Version: 6.00 Build 0)  -->
<!DOCTYPE svg PUBLIC "-//W3C//DTD SVG 1.1//EN" "http://www.w3.org/Graphics/SVG/1.1/DTD/svg11.dtd">
<svg version="1.1" id="Capa_1" xmlns="http://www.w3.org/2000/svg" xmlns:xlink="http://www.w3.org/1999/xlink" x="0px" y="0px"
	 viewBox="0 0 512 512" enable-background="new 0 0 512 512" xml:space="preserve">
<g>
	<g>
		<path fill="#FFFFFF" d="M256,149.6c-63.1,0-114.4,52.2-114.4,116.4S192.9,382.4,256,382.4S370.4,330.2,370.4,266
			S319.1,149.6,256,149.6z M256,348.7c-44.8,0-81.3-37.1-81.3-82.7s36.5-82.7,81.3-82.7s81.3,37.1,81.3,82.7S300.8,348.7,256,348.7z
			"/>
	</g>
</g>
<g>
	<g>
		<ellipse fill="#FFFFFF" cx="377.4" cy="131.7" rx="16.6" ry="16.9"/>
	</g>
</g>
<g>
	<path fill="#FFFFFF" d="M256.6,511.6C116.9,511.6,3.2,398,3.2,258.3S116.9,5,256.6,5s253.3,113.6,253.3,253.3
		S396.2,511.6,256.6,511.6z M256.6,34C132.8,34,32.2,134.6,32.2,258.3s100.6,224.4,224.4,224.4c123.7,0,224.4-100.7,224.4-224.4
		S380.3,34,256.6,34z"/>
</g>
</svg>
