<?xml version="1.0" encoding="utf-8"?>
<!-- Generator: Adobe Illustrator 17.1.0, SVG Export Plug-In . SVG Version: 6.00 Build 0)  -->
<!DOCTYPE svg PUBLIC "-//W3C//DTD SVG 1.1//EN" "http://www.w3.org/Graphics/SVG/1.1/DTD/svg11.dtd">
<svg version="1.1" id="Layer_1" xmlns="http://www.w3.org/2000/svg" xmlns:xlink="http://www.w3.org/1999/xlink" x="0px" y="0px"
	 viewBox="0 0 512 512" enable-background="new 0 0 512 512" xml:space="preserve">
<path fill="#1976D2" d="M331.4,193.3c-39.9,0-72.3-32.4-72.3-72.3s32.4-72.3,72.3-72.3c39.9,0,72.3,32.4,72.3,72.3
	C403.7,160.8,371.3,193.3,331.4,193.3z M331.4,68.7c-28.8,0-52.3,23.5-52.3,52.3s23.5,52.3,52.3,52.3s52.3-23.5,52.3-52.3
	C383.7,92.1,360.2,68.7,331.4,68.7z"/>
<path fill="#1976D2" d="M331.4,36.3c-5.5,0-10-4.5-10-10V10c0-5.5,4.5-10,10-10s10,4.5,10,10v16.3C341.4,31.8,336.9,36.3,331.4,36.3
	z"/>
<path fill="#1976D2" d="M331.4,242c-5.5,0-10-4.5-10-10v-16.3c0-5.5,4.5-10,10-10s10,4.5,10,10V232C341.4,237.5,336.9,242,331.4,242
	z"/>
<path fill="#1976D2" d="M442.4,131h-16.3c-5.5,0-10-4.5-10-10s4.5-10,10-10h16.3c5.5,0,10,4.5,10,10S447.9,131,442.4,131z"/>
<path fill="#1976D2" d="M236.7,131h-16.3c-5.5,0-10-4.5-10-10s4.5-10,10-10h16.3c5.5,0,10,4.5,10,10S242.2,131,236.7,131z"/>
<path fill="#1976D2" d="M407.2,55.2c-2.6,0-5.1-1-7.1-2.9c-3.9-3.9-3.9-10.2,0-14.1l13-13c3.9-3.9,10.2-3.9,14.1,0s3.9,10.2,0,14.1
	l-13,13C412.3,54.2,409.8,55.2,407.2,55.2z"/>
<path fill="#1976D2" d="M242.6,219.8c-2.6,0-5.1-1-7.1-2.9c-3.9-3.9-3.9-10.2,0-14.1l13-13c3.9-3.9,10.2-3.9,14.1,0
	c3.9,3.9,3.9,10.2,0,14.1l-13,13C247.7,218.8,245.1,219.8,242.6,219.8z"/>
<path fill="#1976D2" d="M420.2,219.8c-2.6,0-5.1-1-7.1-2.9l-13-13c-3.9-3.9-3.9-10.2,0-14.1c3.9-3.9,10.2-3.9,14.1,0l13,13
	c3.9,3.9,3.9,10.2,0,14.1C425.4,218.8,422.8,219.8,420.2,219.8z"/>
<path fill="#1976D2" d="M255.6,55.2c-2.6,0-5.1-1-7.1-2.9l-13-13c-3.9-3.9-3.9-10.2,0-14.1c3.9-3.9,10.2-3.9,14.1,0l13,13
	c3.9,3.9,3.9,10.2,0,14.1C260.7,54.2,258.2,55.2,255.6,55.2z"/>
<path fill="#1976D2" d="M507,266c-1.9-1.9-4.4-2.9-7.1-2.9c-86.6,0-168.9,22.2-238.3,64.1c-48-29-101.8-48.6-158.6-57.9v-8.2
	c46.6-5,83-44.6,83-92.4c0-25-10-48.8-27.7-66.2c0.3-2.7,0.5-5.4,0.5-8.1c0-36.2-29.5-65.7-65.7-65.7S27.2,58.1,27.2,94.4
	c0,2.7,0.2,5.4,0.5,8.1C10,119.9,0,143.7,0,168.7c0,47.9,36.4,87.4,83,92.4v5.4c-19-2.3-38.3-3.4-57.7-3.4c-5.1,0-10.3,0.1-15.4,0.2
	c-5.4,0.2-9.7,4.6-9.7,10V502c0,5.5,4.5,10,10,10h489.8c5.5,0,10-4.5,10-10V273.1C509.9,270.4,508.9,267.9,507,266z M20,168.7
	c0-21.1,9.1-41.2,25.1-55c2.7-2.4,4-6.1,3.2-9.6c-0.7-3.1-1-6.4-1-9.6c0-25.2,20.5-45.7,45.7-45.7c25.2,0,45.7,20.5,45.7,45.7
	c0,3.2-0.3,6.5-1,9.6c-0.8,3.6,0.5,7.2,3.2,9.6c15.9,13.9,25.1,33.9,25.1,55c0,36.9-27.4,67.4-63,72.3v-38.6
	c0.9-0.5,1.7-1.1,2.5-1.8l29.8-29.8c3.9-3.9,3.9-10.2,0-14.1s-10.2-3.9-14.1,0L103,174.8V83.4c0-5.5-4.5-10-10-10
	c-5.5,0-10,4.5-10,10v91.4l-18.2-18.2c-3.9-3.9-10.2-3.9-14.1,0c-3.9,3.9-3.9,10.2,0,14.1l29.8,29.8c0.8,0.8,1.6,1.4,2.5,1.8V241
	C47.4,236.1,20,205.5,20,168.7z M20.1,283.1c1.7,0,3.4,0,5.1,0c19.5,0,38.8,1.2,57.7,3.6v72c0,5.5,4.5,10,10,10c5.5,0,10-4.5,10-10
	v-69c49.8,8.5,97.1,25.3,139.8,49.7c-27.5,18.8-51.9,40.5-72.5,64.6c-23.1,27.1-41.1,56.7-53.4,88.1H20.1V283.1z M489.9,283.2v45
	c-62.7,1.6-122.6,17.8-174.1,47.2c-51.2,29.3-90.5,69.5-114.2,116.6h-63.1C190.2,370.9,331.5,286.6,489.9,283.2z M224.3,492
	c47.3-84.2,151.1-140.7,265.6-143.8v45c-82.5,2.8-157.8,40-199.7,98.8H224.3z M315.5,492c39.4-46.9,103.9-76.2,174.4-78.8V492H315.5
	z"/>
<path fill="#1976D2" d="M93,402c-0.6,0-1.3-0.1-1.9-0.2c-0.6-0.1-1.3-0.3-1.9-0.6c-0.6-0.3-1.2-0.6-1.7-0.9
	c-0.6-0.4-1.1-0.8-1.5-1.2s-0.9-1-1.2-1.5c-0.4-0.6-0.7-1.1-0.9-1.7c-0.3-0.6-0.4-1.2-0.6-1.9c-0.1-0.6-0.2-1.3-0.2-2
	c0-0.6,0.1-1.3,0.2-1.9c0.1-0.6,0.3-1.3,0.6-1.9c0.3-0.6,0.6-1.2,0.9-1.7c0.4-0.5,0.8-1.1,1.2-1.5c0.5-0.5,1-0.9,1.5-1.2
	c0.5-0.4,1.1-0.7,1.7-0.9c0.6-0.3,1.2-0.4,1.9-0.6c1.3-0.3,2.6-0.3,3.9,0c0.6,0.1,1.3,0.3,1.9,0.6c0.6,0.3,1.2,0.6,1.7,0.9
	c0.6,0.4,1.1,0.8,1.5,1.2c0.5,0.5,0.9,1,1.3,1.5c0.4,0.6,0.7,1.1,0.9,1.7c0.3,0.6,0.4,1.2,0.6,1.9c0.1,0.7,0.2,1.3,0.2,1.9
	c0,0.7-0.1,1.3-0.2,2c-0.1,0.6-0.3,1.3-0.6,1.9s-0.6,1.2-0.9,1.7c-0.4,0.5-0.8,1.1-1.3,1.5s-1,0.9-1.5,1.2c-0.5,0.4-1.1,0.7-1.7,0.9
	c-0.6,0.3-1.2,0.4-1.9,0.6C94.3,402,93.6,402,93,402z"/>
</svg>
