<?xml version="1.0" encoding="utf-8"?>
<!-- Generator: Adobe Illustrator 17.1.0, SVG Export Plug-In . SVG Version: 6.00 Build 0)  -->
<!DOCTYPE svg PUBLIC "-//W3C//DTD SVG 1.1//EN" "http://www.w3.org/Graphics/SVG/1.1/DTD/svg11.dtd">
<svg version="1.1" id="Capa_1" xmlns="http://www.w3.org/2000/svg" xmlns:xlink="http://www.w3.org/1999/xlink" x="0px" y="0px"
	 viewBox="0 0 1000 800" enable-background="new 0 0 1000 800" xml:space="preserve">
<g>
	<g>
		<path fill="#1976D2" d="M807.9,564.6c-4.4-1.8-9.4-0.8-12.8,2.5L666.7,695.4c-3.4,3.4-4.4,8.4-2.5,12.8c1.8,4.4,6.1,7.2,10.8,7.2
			h128.3c6.5,0,11.7-5.3,11.7-11.7V575.4C815.1,570.7,812.3,566.4,807.9,564.6z M703.4,692l88.2-88.2V692H703.4z"/>
	</g>
</g>
<g>
	<g>
		<path fill="#1976D2" d="M892.8,376.4c-4.4-1.8-9.4-0.8-12.8,2.5l-35.2,35.2V175c0-6.5-5.3-11.7-11.7-11.7h-90.2l32.8-32.8
			c0,0,0,0,0,0l31.6-31.6c6.8-6.8,10.5-15.8,10.5-25.3s-3.7-18.6-10.5-25.3l-36.5-36.5C763.9,5,754.9,1.3,745.3,1.3
			c-9.6,0-18.6,3.7-25.3,10.5l-31.6,31.6l-38.2,38.2l-81.7,81.7H204.1V47c0-6.5-5.3-11.7-11.7-11.7c-50.9,0-92.4,41.4-92.4,92.4
			v498.7c0,0.9,0.1,1.7,0.3,2.5c1.6,21.6,11,41.7,26.6,56.9c16.7,16.3,38.7,25.3,62.1,25.3h358.8l-67.6,67.6
			c-3.4,3.4-4.4,8.4-2.5,12.8c1.8,4.4,6.1,7.2,10.8,7.2h399.8c6.5,0,11.7-5.3,11.7-11.7V387.2C900,382.5,897.1,378.2,892.8,376.4z
			 M736.6,28.4c4.8-4.8,12.6-4.8,17.4,0l36.5,36.5c4.8,4.8,4.8,12.6,0,17.4l-23.3,23.3l-53.9-53.9L736.6,28.4z M696.8,68.2
			l53.9,53.9l-21.5,21.5l-53.9-53.9L696.8,68.2z M876.5,519.1h-21.7c-6.5,0-11.7,5.3-11.7,11.7s5.3,11.7,11.7,11.7h21.7V578h-21.7
			c-6.5,0-11.7,5.3-11.7,11.7c0,6.5,5.3,11.7,11.7,11.7h21.7v35.4h-21.7c-6.5,0-11.7,5.3-11.7,11.7s5.3,11.7,11.7,11.7h21.7v35.4
			h-21.7c-6.5,0-11.7,5.3-11.7,11.7c0,6.5,5.3,11.7,11.7,11.7h21.7v56H516.8l118.6-118.6c4.6-4.6,4.6-12,0-16.6
			c-0.5-0.5-1.1-1-1.7-1.4c-4.6-3.1-10.9-2.7-14.9,1.4l-47.6,47.6H189c-35.6,0-64.3-27.8-65.4-63.4c0.1-2.2,0.2-4.4,0.5-6.6
			c0,0,0,0,0,0c0.1-1,0.3-2.1,0.5-3.1c0-0.1,0-0.2,0.1-0.4c0.2-0.9,0.3-1.8,0.5-2.7c0.1-0.3,0.1-0.5,0.2-0.8
			c0.2-0.8,0.4-1.5,0.6-2.3c0.1-0.4,0.2-0.8,0.4-1.2c0.2-0.6,0.3-1.2,0.5-1.8c0.2-0.6,0.4-1.2,0.6-1.8c0.1-0.4,0.3-0.8,0.4-1.2
			c0.3-0.8,0.6-1.5,0.9-2.3c0.1-0.2,0.2-0.4,0.3-0.7c0.4-0.9,0.8-1.9,1.3-2.8c0,0,0-0.1,0.1-0.1c9.2-19,26.8-33.2,48-37.6
			c0.1,0,0.1,0,0.2,0c1-0.2,2-0.4,2.9-0.5c0.2,0,0.3-0.1,0.5-0.1c0.9-0.1,1.8-0.2,2.7-0.3c0.3,0,0.5-0.1,0.8-0.1
			c0.9-0.1,1.7-0.1,2.6-0.2c0.3,0,0.6,0,0.8-0.1c1.2-0.1,2.3-0.1,3.5-0.1c6.5,0,11.7-5.3,11.7-11.7v-85.1c0-6.5-5.3-11.7-11.7-11.7
			s-11.7,5.3-11.7,11.7v74.1c-19.8,2.5-38.2,11.4-52.7,25.5c-1.5,1.5-3,3-4.4,4.6V127.7c0-34,24.7-62.3,57.1-67.9V175v238.7v0
			c0,6.5,5.3,11.7,11.7,11.7s11.7-5.3,11.7-11.7v0v-227h341l-64.9,64.9c-4.6,4.6-4.6,12,0,16.6c4.6,4.6,12,4.6,16.6,0l85-85
			c0,0,0,0,0,0l76.9-76.9l53.9,53.9l-6.3,6.3c0,0,0,0,0,0L469.4,403.4l-53.9-53.9l46.7-46.7c4.6-4.6,4.6-12,0-16.6
			c-4.6-4.6-12-4.6-16.6,0l-55,55c-0.3,0.3-0.6,0.6-0.8,0.9c-0.1,0.1-0.2,0.2-0.2,0.3c-0.2,0.2-0.3,0.4-0.5,0.7
			c-0.1,0.1-0.2,0.3-0.2,0.4c-0.1,0.2-0.3,0.4-0.4,0.7c-0.1,0.1-0.1,0.3-0.2,0.4c-0.1,0.2-0.2,0.5-0.3,0.7c0,0.1-0.1,0.2-0.1,0.2
			l-22.9,64.8l-15.6,44.2c-0.2,0.6-0.4,1.2-0.5,1.8h-39.1c-6.5,0-11.7,5.3-11.7,11.7c0,6.5,5.3,11.7,11.7,11.7H635
			c6.5,0,11.7-5.3,11.7-11.7c0-6.5-5.3-11.7-11.7-11.7H401.7l71.6-25.3c0.1,0,0.1-0.1,0.2-0.1c0.3-0.1,0.6-0.2,0.8-0.3
			c0.1-0.1,0.2-0.1,0.3-0.1c0.3-0.1,0.6-0.3,0.8-0.5c0.1-0.1,0.2-0.1,0.3-0.2c0.3-0.2,0.6-0.4,0.8-0.6c0.1-0.1,0.1-0.1,0.2-0.1
			c0.3-0.3,0.6-0.5,1-0.8l241.6-241.6h102v250.9l-168,168c-4.6,4.6-4.6,12,0,16.6c0.3,0.3,0.6,0.6,0.9,0.8c2.2,1.8,4.8,2.6,7.4,2.6
			c2.6,0,5.3-0.9,7.4-2.6c0.3-0.3,0.6-0.5,0.9-0.8c0,0,0,0,0,0l206.6-206.6V519.1z M447.9,415.2L414.3,427l-22.4-22.4l11.9-33.6
			L447.9,415.2z"/>
	</g>
</g>
</svg>
