<?xml version="1.0" encoding="utf-8"?>
<!-- Generator: Adobe Illustrator 17.1.0, SVG Export Plug-In . SVG Version: 6.00 Build 0)  -->
<!DOCTYPE svg PUBLIC "-//W3C//DTD SVG 1.1//EN" "http://www.w3.org/Graphics/SVG/1.1/DTD/svg11.dtd">
<svg version="1.1" id="Capa_1" xmlns="http://www.w3.org/2000/svg" xmlns:xlink="http://www.w3.org/1999/xlink" x="0px" y="0px"
	 viewBox="0 0 512 512" enable-background="new 0 0 512 512" xml:space="preserve">
<g>
	<g>
		<path fill="#FFFFFF" d="M139.6,370.9h48v-192h-48V370.9z M331.6,178.9c-41.1,0.7-61.3,30.6-64,32v-32h-48v192h48v-112
			c0-4.1,10.1-37,48-32c20.3,1.3,31.3,28.2,32,32v112l47.8,0.2V238.2C393.8,219,384.2,179.6,331.6,178.9z M163.6,114.9
			c-13.3,0-24,10.7-24,24s10.8,24,24,24s24-10.7,24-24S176.9,114.9,163.6,114.9z"/>
	</g>
</g>
<g>
	<path fill="#FFFFFF" d="M256.6,511.6c-141.2,0-256-114.8-256-256s114.8-256,256-256s256,114.8,256,256S397.7,511.6,256.6,511.6z
		 M256.6,28.9c-125,0-226.7,101.7-226.7,226.7s101.7,226.7,226.7,226.7c125,0,226.7-101.7,226.7-226.7S381.6,28.9,256.6,28.9z"/>
</g>
</svg>
