<?xml version="1.0" encoding="utf-8"?>
<!-- Generator: Adobe Illustrator 17.1.0, SVG Export Plug-In . SVG Version: 6.00 Build 0)  -->
<!DOCTYPE svg PUBLIC "-//W3C//DTD SVG 1.1//EN" "http://www.w3.org/Graphics/SVG/1.1/DTD/svg11.dtd">
<svg version="1.1" id="Layer_1" xmlns="http://www.w3.org/2000/svg" xmlns:xlink="http://www.w3.org/1999/xlink" x="0px" y="0px"
	 viewBox="0 0 512 512" enable-background="new 0 0 512 512" xml:space="preserve">
<g>
	<g>
		<path fill="#1976D2" d="M319.1,132.7l-16.7-48.2c0.8-3.2,0.8-6.4,0.8-8.1c0-24.3-19.7-43.4-44.8-43.4s-44.8,19.3-44.8,43.9
			c0,2.9,0.3,5.4,0.8,7.6l-17.7,48.2c-1,2.6-0.6,5.5,1,7.8c1.6,2.3,4.2,3.7,7,3.7h106.3c2.8,0,5.3-1.3,6.9-3.6
			C319.6,138.2,320,135.3,319.1,132.7z M258.5,50c15.6,0,27.4,11,27.7,25.8h-55.4C231.3,61.3,243.3,50,258.5,50z M217,127l12.5-34.1
			h57.7l11.8,34.1H217z"/>
	</g>
</g>
<g>
	<g>
		<path fill="#1976D2" d="M194.5,181.6c-4.1-2.4-9.3-1-11.7,3.1L169.4,208c-2.4,4.1-1,9.3,3.1,11.7c1.3,0.8,2.8,1.1,4.3,1.1
			c3,0,5.8-1.5,7.4-4.3l13.5-23.3C200,189.2,198.6,184,194.5,181.6z"/>
	</g>
</g>
<g>
	<g>
		<path fill="#1976D2" d="M342.6,208l-13.5-23.3c-2.4-4.1-7.6-5.5-11.7-3.1c-4.1,2.4-5.5,7.6-3.1,11.7l13.5,23.3
			c1.6,2.7,4.4,4.3,7.4,4.3c1.5,0,2.9-0.4,4.3-1.1C343.6,217.3,345,212.1,342.6,208z"/>
	</g>
</g>
<g>
	<g>
		<path fill="#1976D2" d="M258.5,178.2c-4.7,0-8.5,3.8-8.5,8.5v25.6c0,4.7,3.8,8.5,8.5,8.5s8.5-3.8,8.5-8.5v-25.6
			C267,182,263.2,178.2,258.5,178.2z"/>
	</g>
</g>
</svg>
