<?xml version="1.0" encoding="utf-8"?>
<!-- Generator: Adobe Illustrator 17.1.0, SVG Export Plug-In . SVG Version: 6.00 Build 0)  -->
<!DOCTYPE svg PUBLIC "-//W3C//DTD SVG 1.1//EN" "http://www.w3.org/Graphics/SVG/1.1/DTD/svg11.dtd">
<svg version="1.1" id="Capa_1" xmlns="http://www.w3.org/2000/svg" xmlns:xlink="http://www.w3.org/1999/xlink" x="0px" y="0px"
	 viewBox="0 0 512 512" enable-background="new 0 0 512 512" xml:space="preserve">
<g>
	<g>
		<path fill="#FFFFFF" d="M380.3,254.1c5-6.5,9-11.7,11.9-15.6c21.2-28.1,30.3-46.1,27.5-53.9l-1.1-1.8c-0.7-1.1-2.6-2.1-5.7-3
			c-3.1-0.9-7-1.1-11.7-0.5l-52.8,0.4c-1.2-0.1-2.4-0.1-3.7,0.1c-1.2,0.2-2,0.4-2.4,0.6c-0.4,0.2-0.7,0.3-0.9,0.5l-0.7,0.6
			c-0.6,0.4-1.3,1-2,1.9c-0.7,0.9-1.3,2-1.8,3.2c-5.7,14.8-12.3,28.6-19.6,41.3c-4.5,7.6-8.7,14.2-12.5,19.7
			c-3.8,5.6-7,9.7-9.5,12.3c-2.6,2.6-4.9,4.7-7,6.3c-2.1,1.6-3.7,2.3-4.8,2c-1.1-0.2-2.1-0.5-3.1-0.7c-1.7-1.1-3.1-2.6-4.1-4.5
			c-1-1.9-1.7-4.3-2.1-7.2c-0.4-2.9-0.6-5.4-0.6-7.4c-0.1-2.1,0-5,0.1-8.8c0.1-3.8,0.2-6.4,0.2-7.7c0-4.6,0.1-9.7,0.3-15.1
			c0.2-5.4,0.3-9.8,0.5-12.9c0.1-3.2,0.2-6.5,0.2-10.1c0-3.5-0.2-6.3-0.6-8.3c-0.4-2-1.1-4-1.9-5.9c-0.9-1.9-2.1-3.4-3.8-4.4
			c-1.7-1-3.7-1.9-6.1-2.5c-6.5-1.5-14.7-2.3-24.8-2.4c-22.8-0.2-37.4,1.2-43.9,4.4c-2.6,1.3-4.9,3.2-7,5.5
			c-2.2,2.7-2.5,4.2-0.9,4.4c7.3,1.1,12.5,3.7,15.6,7.9l1.1,2.2c0.9,1.6,1.7,4.4,2.6,8.4c0.9,4,1.4,8.5,1.7,13.4
			c0.6,8.9,0.6,16.6,0,22.9c-0.6,6.4-1.2,11.3-1.7,14.9c-0.6,3.5-1.4,6.4-2.5,8.6c-1.1,2.2-1.8,3.6-2.2,4c-0.4,0.5-0.7,0.8-0.9,0.9
			c-1.6,0.6-3.2,0.9-5,0.9c-1.7,0-3.8-0.9-6.2-2.6c-2.4-1.7-5-4.1-7.6-7.1c-2.6-3-5.6-7.2-8.9-12.6c-3.3-5.4-6.7-11.7-10.3-19.1
			l-2.9-5.3c-1.8-3.4-4.3-8.4-7.5-15c-3.2-6.5-6-12.9-8.4-19c-1-2.6-2.4-4.5-4.4-5.9l-0.9-0.6c-0.6-0.5-1.6-1-2.9-1.6
			c-1.3-0.6-2.8-0.9-4.2-1.2l-50.3,0.4c-5.1,0-8.6,1.2-10.5,3.5l-0.7,1.1c-0.4,0.6-0.6,1.6-0.6,2.9c0,1.3,0.4,3,1.1,5
			c7.3,17.3,15.3,33.9,23.9,49.9c8.6,16,16.1,28.9,22.5,38.7c6.4,9.8,12.8,19,19.5,27.7c6.6,8.7,11,14.2,13.1,16.7
			c2.1,2.5,3.8,4.3,5,5.5l4.6,4.4c2.9,2.9,7.2,6.4,12.9,10.6c5.7,4.1,12,8.1,18.9,12.1c6.9,4,15,7.2,24.1,9.7
			c9.2,2.5,18.1,3.5,26.8,3h21.1c4.3-0.4,7.5-1.7,9.7-4l0.7-0.9c0.5-0.7,0.9-1.9,1.4-3.4c0.4-1.5,0.6-3.2,0.6-5
			c-0.1-5.3,0.3-10,1.2-14.2c0.9-4.2,2-7.4,3.1-9.5c1.2-2.1,2.5-3.9,3.9-5.4c1.5-1.5,2.5-2.4,3.1-2.7c0.6-0.3,1.1-0.5,1.5-0.6
			c2.9-1,6.4,0,10.4,2.8c4,2.9,7.7,6.4,11.2,10.6c3.5,4.2,7.7,9,12.6,14.2c4.9,5.3,9.2,9.2,12.8,11.7l3.7,2.2c2.4,1.5,5.6,2.8,9.5,4
			c3.9,1.2,7.3,1.5,10.3,0.9l47-0.7c4.6,0,8.3-0.8,10.8-2.3c2.6-1.5,4.1-3.2,4.6-5c0.5-1.8,0.5-3.9,0.1-6.2
			c-0.4-2.3-0.9-3.9-1.3-4.9c-0.4-0.9-0.8-1.7-1.2-2.3c-6.1-11-17.8-24.5-35-40.6l-0.4-0.4l-0.2-0.2l-0.2-0.2h-0.2
			c-7.8-7.5-12.8-12.5-14.9-15.1c-3.8-4.9-4.7-9.8-2.6-14.9C365.2,274.3,370.7,266.3,380.3,254.1z"/>
	</g>
</g>
<g>
	<path fill="#FFFFFF" d="M256,494C124.8,494,18,387.2,18,256S124.8,18,256,18s238,106.8,238,238S387.2,494,256,494z M256,45.2
		C139.8,45.2,45.2,139.8,45.2,256S139.8,466.8,256,466.8c116.2,0,210.8-94.6,210.8-210.8S372.2,45.2,256,45.2z"/>
</g>
</svg>
